<?xml version="1.0" encoding="utf-8"?>
<!-- Generator: Adobe Illustrator 16.0.0, SVG Export Plug-In . SVG Version: 6.00 Build 0)  -->
<!DOCTYPE svg PUBLIC "-//W3C//DTD SVG 1.1//EN" "http://www.w3.org/Graphics/SVG/1.1/DTD/svg11.dtd">
<svg version="1.1" id="Layer_1" xmlns="http://www.w3.org/2000/svg" xmlns:xlink="http://www.w3.org/1999/xlink" x="0px" y="0px"
	 width="116px" height="96px" viewBox="0 0 116 96" enable-background="new 0 0 116 96" xml:space="preserve">
<g>
	<line class="linePath" fill="none" stroke="#000000" stroke-miterlimit="10" x1="18.679" y1="19.555" x2="29.727" y2="19.555"/>
	<line class="linePath" fill="none" stroke="#000000" stroke-miterlimit="10" x1="31.123" y1="19.555" x2="32.578" y2="19.555"/>
	<line class="linePath" fill="none" stroke="#000000" stroke-miterlimit="10" x1="91.535" y1="3.095" x2="80.485" y2="3.095"/>
	<line class="linePath" fill="none" stroke="#000000" stroke-miterlimit="10" x1="79.09" y1="3.095" x2="77.636" y2="3.095"/>
	<line class="linePath" fill="none" stroke="#000000" stroke-miterlimit="10" x1="60.662" y1="84.93" x2="71.712" y2="84.93"/>
	<line class="linePath" fill="none" stroke="#000000" stroke-miterlimit="10" x1="73.106" y1="84.93" x2="74.562" y2="84.93"/>
	<path class="path" fill="none" stroke="#000000" stroke-miterlimit="10" d="M61.451,1"/>
	<path class="path" fill="none" stroke="#000000" stroke-miterlimit="10" d="M57.296,2.722c2.295-2.295,6.015-2.295,8.31,0s2.295,6.015,0,8.309
		c-2.295,2.295-6.015,2.295-8.31,0c-1.557-1.557-2.058-3.77-1.501-5.749"/>
	<path class="path" fill="none" stroke="#000000" stroke-miterlimit="10" d="M97.364,38.655"/>
	<path class="path" fill="none" stroke="#000000" stroke-miterlimit="10" d="M97.364,38.655c-1.463-1.068-2.412-2.797-2.412-4.747
		c0-3.245,2.629-5.875,5.874-5.875c3.244,0,5.874,2.629,5.874,5.875c0,3.244-2.63,5.874-5.874,5.874"/>
	<path class="path" fill="none" stroke="#000000" stroke-miterlimit="10" d="M94.101,79.188c0.966-1.927,2.957-3.248,5.258-3.248
		c3.244,0,5.876,2.631,5.876,5.875s-2.632,5.876-5.876,5.876s-5.875-2.632-5.875-5.876"/>
	<path class="path" fill="none" stroke="#000000" stroke-miterlimit="10" d="M39.457,91.587"/>
	<path class="path" fill="none" stroke="#000000" stroke-miterlimit="10" d="M39.457,91.587c-1.027,1.711-2.9,2.854-5.04,2.854
		c-3.245,0-5.876-2.63-5.876-5.876c0-3.244,2.631-5.875,5.876-5.875s5.876,2.631,5.876,5.875"/>
	<path class="path" fill="none" stroke="#000000" stroke-miterlimit="10" d="M10.419,37.905c-0.333-1.833,0.208-3.795,1.625-5.212
		c2.294-2.294,6.014-2.294,8.308,0c2.294,2.294,2.294,6.014,0,8.308c-2.294,2.294-6.014,2.294-8.308,0"/>
	<path class="path" fill="none" stroke="#000000" stroke-miterlimit="10" d="M76.025,69.36"/>
	<path class="path" fill="none" stroke="#000000" stroke-miterlimit="10" d="M43.287,31.776c-2.738,2.824-4.828,6.301-6,10.197l-11.215-4.807
		l-0.078,1.128c-0.114,1.66-0.772,3.191-1.9,4.426l-0.764,0.835l12.875,5.518c-0.002,0.035-0.002,0.071-0.002,0.109
		c0,6.908,2.886,13.517,7.938,18.251l-7.615,11.423l1.095,0.285c1.585,0.411,3.008,1.357,4.005,2.673l0.683,0.897l7.506-11.259
		c3.522,1.807,7.453,2.76,11.418,2.76c3.128,0,6.18-0.579,9.026-1.682"/>
	<path class="path" fill="none" stroke="#000000" stroke-miterlimit="10" d="M50.899,26.396"/>
	<path class="path" fill="none" stroke="#000000" stroke-miterlimit="10" d="M76.025,69.36c0.714-0.525,1.403-1.093,2.065-1.697l12.38,10.376
		l0.424-1.046c0.617-1.52,1.746-2.808,3.175-3.623l0.981-0.561l-12.52-10.498c2.445-3.95,3.732-8.474,3.732-13.126
		c0-1.751-0.204-3.557-0.608-5.375l8.043-3.217l-0.743-0.854c-1.094-1.258-1.712-2.805-1.79-4.472l-0.049-1.129l-7.886,3.152
		c-3.762-6.957-10.523-11.7-18.319-12.85v-8.606l-1.068,0.372c-1.579,0.549-3.235,0.549-4.816,0l-1.067-0.373v8.533
		c-0.98,0.128-1.943,0.315-2.887,0.555"/>
	<path class="path" fill="none" stroke="#000000" stroke-miterlimit="10" d="M51.644,33.509"/>
	<path class="path" fill="none" stroke="#000000" stroke-miterlimit="10" d="M45.034,57.847c-0.421-0.789-0.786-1.608-1.089-2.451"/>
	<path class="path" fill="none" stroke="#000000" stroke-miterlimit="10" d="M43.102,52.164c-0.537-3.233-0.217-6.649,1.105-9.902
		c3.817-9.388,14.561-13.921,23.949-10.104s13.921,14.559,10.104,23.95c-3.815,9.387-14.56,13.919-23.947,10.104
		c-3.487-1.418-6.305-3.792-8.272-6.697"/>
	<g>
		<path class="path" fill="none" stroke="#000000" stroke-miterlimit="10" d="M64.81,59.777l-8.665-8.062v-0.677h2.574
			c2.771,0,5.037-2.268,5.037-5.037l0,0c0-2.772-2.269-5.038-5.037-5.038h-3.646"/>
		<path class="path" fill="none" stroke="#000000" stroke-miterlimit="10" d="M55.072,40.961h13.509"/>
		<path class="path" fill="none" stroke="#000000" stroke-miterlimit="10" d="M55.072,46.001h13.509"/>
	</g>
</g>
</svg>
