<?xml version="1.0" encoding="utf-8"?>
<!-- Generator: Adobe Illustrator 16.0.0, SVG Export Plug-In . SVG Version: 6.00 Build 0)  -->
<!DOCTYPE svg PUBLIC "-//W3C//DTD SVG 1.1//EN" "http://www.w3.org/Graphics/SVG/1.1/DTD/svg11.dtd">
<svg version="1.1" id="Layer_1" xmlns="http://www.w3.org/2000/svg" xmlns:xlink="http://www.w3.org/1999/xlink" x="0px" y="0px"
	 width="116px" height="96px" viewBox="0 0 116 96" enable-background="new 0 0 116 96" xml:space="preserve">
<g>
	<line class="linePath" fill="none" stroke="#000000" stroke-miterlimit="10" x1="100.574" y1="43.216" x2="111.247" y2="43.216"/>
	<line class="linePath" fill="none" stroke="#000000" stroke-miterlimit="10" x1="112.596" y1="43.216" x2="114" y2="43.216"/>
	<line class="linePath" fill="none" stroke="#000000" stroke-miterlimit="10" x1="31.404" y1="88.15" x2="20.731" y2="88.15"/>
	<line class="linePath" fill="none" stroke="#000000" stroke-miterlimit="10" x1="19.383" y1="88.15" x2="17.978" y2="88.15"/>
	<line class="linePath" fill="none" stroke="#000000" stroke-miterlimit="10" x1="56.889" y1="6.059" x2="46.216" y2="6.059"/>
	<line class="linePath" fill="none" stroke="#000000" stroke-miterlimit="10" x1="44.868" y1="6.059" x2="43.463" y2="6.059"/>
	<g transform="translate(0,-952.36223)">
		<path class="path" fill="none" stroke="#000000" stroke-linejoin="round" d="M89.7,997.994v12.372h13.138"/>
		<path class="path" fill="none" stroke="#000000" stroke-linejoin="round" d="M89.7,990.128v3.391"/>
		<path class="path" fill="none" stroke="#000000" stroke-linejoin="round" d="M37.717,989.81h11.6v-11.381h14.194v11.675h7.182v-25.277H89.7
			v23.573"/>
		<path class="path" fill="none" stroke="#000000" stroke-linejoin="round" d="M56.228,1010.808h-26v10.498l-21.294-20.997l21.294-20.998v10.499
			h2.949"/>
		<path class="path" fill="none" stroke="#000000" stroke-linejoin="round" d="M49.147,1031.805h19.259v10.499l21.294-20.998l-21.294-20.997
			v10.499h-9.23"/>
		<path class="path" fill="none" stroke="#000000" stroke-linejoin="round" d="M29.308,1031.805h22.246"/>
	</g>
	<line class="linePath" fill="none" stroke="#000000" stroke-linejoin="round" x1="58.313" y1="30.6" x2="59.832" y2="30.6"/>
	<line class="linePath" fill="none" stroke="#000000" stroke-linejoin="round" x1="53.038" y1="30.6" x2="57.411" y2="30.6"/>
	<g>
		<line class="linePath" fill="none" stroke="#000000" stroke-linejoin="round" x1="78.089" y1="25.071" x2="76.57" y2="25.071"/>
		<line class="linePath" fill="none" stroke="#000000" stroke-linejoin="round" x1="83.365" y1="25.071" x2="78.991" y2="25.071"/>
	</g>
	<line class="linePath" fill="none" stroke="#000000" stroke-linejoin="round" x1="53.038" y1="35.556" x2="59.832" y2="35.556"/>
	<line class="linePath" fill="none" stroke="#000000" stroke-linejoin="round" x1="76.57" y1="30.6" x2="83.365" y2="30.6"/>
	<line class="linePath" fill="none" stroke="#000000" stroke-linejoin="round" x1="76.57" y1="35.556" x2="83.365" y2="35.556"/>
	<line class="linePath" fill="none" stroke="#000000" stroke-linejoin="round" x1="76.57" y1="19.543" x2="83.365" y2="19.543"/>
</g>
</svg>
