<?xml version="1.0" encoding="utf-8"?>
<!-- Generator: Adobe Illustrator 16.0.0, SVG Export Plug-In . SVG Version: 6.00 Build 0)  -->
<!DOCTYPE svg PUBLIC "-//W3C//DTD SVG 1.1//EN" "http://www.w3.org/Graphics/SVG/1.1/DTD/svg11.dtd">
<svg version="1.1" id="Layer_1" xmlns="http://www.w3.org/2000/svg" xmlns:xlink="http://www.w3.org/1999/xlink" x="0px" y="0px"
	 width="116px" height="96px" viewBox="0 0 116 96" enable-background="new 0 0 116 96" xml:space="preserve">
<line class="linePath" fill="none" stroke="#000000" stroke-miterlimit="10" x1="11.442" y1="48" x2="9.857" y2="48"/>
<g>
	<line class="linePath" fill="none" stroke="#000000" stroke-miterlimit="10" x1="24.998" y1="56.801" x2="12.962" y2="56.801"/>
	<line class="linePath" fill="none" stroke="#000000" stroke-miterlimit="10" x1="106.078" y1="48.678" x2="94.042" y2="48.678"/>
	<line class="linePath" fill="none" stroke="#000000" stroke-miterlimit="10" x1="92.522" y1="48.678" x2="90.938" y2="48.678"/>
	<line class="linePath" fill="none" stroke="#000000" stroke-miterlimit="10" x1="53.237" y1="12.821" x2="65.274" y2="12.821"/>
	<line class="linePath" fill="none" stroke="#000000" stroke-miterlimit="10" x1="66.795" y1="12.821" x2="68.379" y2="12.821"/>
	<path class="path" fill="none" d="M79.718,19.361l-2.458,7.817l7.817,2.459l2.458-7.817l0.724-0.12c3.935-0.658,7.118-3.419,8.311-7.21
		c1.741-5.532-1.343-11.447-6.876-13.187c-5.531-1.74-11.446,1.344-13.188,6.876c-1.19,3.79-0.162,7.878,2.688,10.669L79.718,19.361
		z"/>
	<path class="path" fill="none" d="M79.718,19.361l-2.458,7.817l7.817,2.459l2.458-7.817l0.724-0.12c3.935-0.658,7.118-3.419,8.311-7.21
		c1.741-5.532-1.343-11.447-6.876-13.187c-5.531-1.74-11.446,1.344-13.188,6.876c-1.19,3.79-0.162,7.878,2.688,10.669L79.718,19.361
		z"/>
	<path class="path" fill="none" stroke="#000000" stroke-miterlimit="10" d="M89.571,1.277 M92.821,3.75c0.642,0.518,1.216,1.107,1.712,1.75
		 M83.335,1.31 M95.786,7.577c1.048,2.298,1.278,4.976,0.451,7.565c-1.212,3.784-4.41,6.53-8.348,7.168l-0.724,0.116l-2.498,7.805
		l-7.805-2.498l2.498-7.805l-0.523-0.516c-2.834-2.805-3.843-6.897-2.631-10.682c1.767-5.523,7.696-8.578,13.219-6.811
		 M67.443,44.115c2.241-1.556,4.249-3.505,5.571-5.925l8.321,2.617c-0.743,6.766,3.593,13.574,6.679,17.468l-30.476-9.587
		c2.27-0.68,5.153-1.74,7.901-3.311C66.119,44.989,66.791,44.569,67.443,44.115 M51.138,68.8 M48.422,73.554L30.257,67.84
		l1.364-4.337l67.888,21.356l-1.363,4.336l-2.039-0.643 M82.611,74.545L32.856,58.893c1.326-4.017,5.65-6.241,9.697-4.968
		l53.085,16.698c4.044,1.273,6.318,5.573,5.105,9.625L88.78,76.485l-3.33-1.048"/>
	<path class="path" fill="none" stroke="#000000" stroke-miterlimit="10" d="M98.508,83.701"/>
	<line class="linePath" fill="none" stroke="#000000" stroke-miterlimit="10" x1="46.61" y1="95.062" x2="97.801" y2="94.734"/>
	<line class="linePath" fill="none" stroke="#000000" stroke-miterlimit="10" x1="27.657" y1="95.183" x2="42.714" y2="95.086"/>
	<line class="linePath" fill="none" stroke="#000000" stroke-miterlimit="10" x1="74.645" y1="32.851" x2="83.401" y2="35.704"/>
</g>
</svg>
