<?xml version="1.0" encoding="utf-8"?>
<!-- Generator: Adobe Illustrator 16.0.0, SVG Export Plug-In . SVG Version: 6.00 Build 0)  -->
<!DOCTYPE svg PUBLIC "-//W3C//DTD SVG 1.1//EN" "http://www.w3.org/Graphics/SVG/1.1/DTD/svg11.dtd">
<svg version="1.1" id="Layer_1" xmlns="http://www.w3.org/2000/svg" xmlns:xlink="http://www.w3.org/1999/xlink" x="0px" y="0px"
	 width="116px" height="96px" viewBox="0 0 116 96" enable-background="new 0 0 116 96" xml:space="preserve">
<g>
	<line class="linePath" fill="none" stroke="#000000" stroke-miterlimit="10" x1="56.669" y1="16.468" x2="65.169" y2="16.468"/>
	<line class="linePath" fill="none" stroke="#000000" stroke-miterlimit="10" x1="66.243" y1="16.468" x2="67.362" y2="16.468"/>
	<line class="linePath" fill="none" stroke="#000000" stroke-miterlimit="10" x1="13.693" y1="43.552" x2="5.193" y2="43.552"/>
	<line class="linePath" fill="none" stroke="#000000" stroke-miterlimit="10" x1="4.119" y1="43.552" x2="3" y2="43.552"/>
	<line class="linePath" fill="none" stroke="#000000" stroke-miterlimit="10" x1="113.205" y1="63.334" x2="104.705" y2="63.334"/>
	<line class="linePath" fill="none" stroke="#000000" stroke-miterlimit="10" x1="103.631" y1="63.334" x2="102.512" y2="63.334"/>
	<g transform="translate(0,-952.36223)">
		<path class="path" fill="none" stroke="#231F20" stroke-miterlimit="10" d="M78.007,975.784l8.305-8.422l8.305,8.422"/>
	</g>
	<path class="path" fill="none" stroke="#000000" stroke-miterlimit="10" d="M66.617,65.591"/>
	<g>
		<path class="path" fill="none" stroke="#000000" stroke-miterlimit="10" d="M26.935,58.163c-0.383,0-0.766,0-1.072,0.077V39.248
			c0.383,0.077,0.689,0.077,1.072,0.077c3.446,0,6.279-2.834,6.279-6.28c0-0.383,0-0.765-0.077-1.149h40.816l0,0
			c0-0.152-0.077-0.229-0.077-0.382c0-0.153-0.076-0.306-0.076-0.536l0,0v-3.063c0-0.459,0.076-0.919,0.229-1.302l0,0H28.565"/>
		<path class="path" fill="none" stroke="#000000" stroke-miterlimit="10" d="M66.617,65.591H33.138c0.077-0.383,0.077-0.766,0.077-1.148
			c0-2.635-1.656-4.911-3.976-5.837"/>
		<path class="path" fill="none" stroke="#000000" stroke-miterlimit="10" d="M20.579,44.902v24.288c0,0.92,0.766,1.686,1.685,1.686H74.03
			c-0.153-0.383-0.229-0.843-0.229-1.302V66.51c0-0.307,0.076-0.612,0.153-0.919h-4.662"/>
		<path class="path" fill="none" stroke="#000000" stroke-miterlimit="10" d="M20.579,44.902"/>
		<path class="path" fill="none" stroke="#000000" stroke-miterlimit="10" d="M25.442,26.613h-3.178c-0.919,0-1.685,0.766-1.685,1.685v13.63"/>
	</g>
	<path class="path" fill="none" stroke="#000000" stroke-miterlimit="10" d="M94.697,65.208H77.85c-0.688,0-1.302,0.612-1.302,1.302v3.063
		c0,0.689,0.613,1.302,1.302,1.302h16.924c0.689,0,1.302-0.612,1.302-1.302V66.51C95.998,65.82,95.463,65.208,94.697,65.208z"/>
	<path class="path" fill="none" stroke="#000000" stroke-miterlimit="10" d="M80.404,45.911"/>
	<path class="path" fill="none" stroke="#000000" stroke-miterlimit="10" d="M94.697,39.478H77.85c-0.688,0-1.302,0.613-1.302,1.301v3.063
		c0,0.689,0.613,1.302,1.302,1.302h16.924c0.689,0,1.302-0.613,1.302-1.302v-3.063C95.998,40.014,95.463,39.478,94.697,39.478z"/>
	<path class="path" fill="none" stroke="#000000" stroke-miterlimit="10" d="M91.66,32.28h3.113c0.689,0,1.302-0.613,1.302-1.302v-3.063
		c-0.077-0.766-0.612-1.302-1.378-1.302H77.85c-0.688,0-1.302,0.612-1.302,1.302v3.063c0,0.689,0.613,1.302,1.302,1.302h11.346"/>
	<path class="path" fill="none" stroke="#000000" stroke-miterlimit="10" d="M83.699,52.343h-5.85c-0.688,0-1.302,0.612-1.302,1.302v3.062
		c0.077,0.767,0.613,1.303,1.379,1.303h16.847c0.689,0,1.302-0.613,1.302-1.303v-3.062c0-0.689-0.612-1.302-1.302-1.302h-8.61"/>
	<g>
		<path class="path" fill="none" stroke="#000000" stroke-miterlimit="10" d="M54.679,55.981l-6.665-6.202v-0.52h1.98
			c2.132,0,3.875-1.745,3.875-3.876l0,0c0-2.133-1.745-3.875-3.875-3.875h-2.806"/>
		<path class="path" fill="none" stroke="#000000" stroke-miterlimit="10" d="M47.188,41.505h10.393"/>
		<path class="path" fill="none" stroke="#000000" stroke-miterlimit="10" d="M47.188,45.383h10.393"/>
	</g>
	<g>
		<path class="path" fill="none" stroke="#000000" stroke-miterlimit="10" d="M42.616,40.899c0.383-0.476,0.799-0.923,1.246-1.339"/>
		<path class="path" fill="none" stroke="#000000" stroke-miterlimit="10" d="M45.664,38.167c1.884-1.202,4.112-1.915,6.506-1.956
			c6.91-0.117,12.628,5.409,12.746,12.319c0.118,6.91-5.406,12.627-12.318,12.745c-6.91,0.117-12.628-5.408-12.745-12.318
			c-0.044-2.567,0.692-4.969,1.987-6.98"/>
	</g>
</g>
</svg>
