<?xml version="1.0" encoding="utf-8"?>
<!-- Generator: Adobe Illustrator 16.0.0, SVG Export Plug-In . SVG Version: 6.00 Build 0)  -->
<!DOCTYPE svg PUBLIC "-//W3C//DTD SVG 1.1//EN" "http://www.w3.org/Graphics/SVG/1.1/DTD/svg11.dtd">
<svg version="1.1" id="Layer_1" xmlns="http://www.w3.org/2000/svg" xmlns:xlink="http://www.w3.org/1999/xlink" x="0px" y="0px"
	 width="116px" height="96px" viewBox="0 0 116 96" enable-background="new 0 0 116 96" xml:space="preserve">
<g>
	<line class="linePath" fill="none" stroke="#000000" stroke-miterlimit="10" x1="29.572" y1="1" x2="41.253" y2="1"/>
	<line class="linePath" fill="none" stroke="#000000" stroke-miterlimit="10" x1="42.729" y1="1" x2="44.267" y2="1"/>
	<line class="linePath" fill="none" stroke="#000000" stroke-miterlimit="10" x1="99.824" y1="47.478" x2="111.504" y2="47.478"/>
	<line class="linePath" fill="none" stroke="#000000" stroke-miterlimit="10" x1="112.978" y1="47.478" x2="114.517" y2="47.478"/>
	<line class="linePath" fill="none" stroke="#000000" stroke-miterlimit="10" x1="14.693" y1="72.535" x2="3.013" y2="72.535"/>
	<line class="linePath" fill="none" stroke="#000000" stroke-miterlimit="10" x1="1.538" y1="72.535" x2="0" y2="72.535"/>
	<path class="path" fill="none" stroke="#231F20" stroke-miterlimit="10" d="M59.621,18.462h10.436v4.208c0,1.789,1.368,3.158,3.155,3.158h6.315
		c1.788,0,3.156-1.369,3.156-3.158v-4.208h4.524c2.737,0,4.945,2.209,4.945,4.945V36.35c0,0-46.677,0-62.236,0
		c-1.42,0-1.658,1.048-1.658,1.679c0,0.631,0.379,1.679,1.216,1.679c15.67,0,62.678,0,62.678,0v4.419"/>
	<line class="linePath" fill="none" stroke="#231F20" stroke-miterlimit="10" x1="54.264" y1="18.462" x2="56.782" y2="18.462"/>
	<path class="path" fill="none" stroke="#231F20" stroke-miterlimit="10" d="M51.133,18.462"/>
	<path class="path" fill="none" stroke="#231F20" stroke-miterlimit="10" d="M34.279,18.457v4.213c0,1.789,1.368,3.158,3.157,3.158h6.314
		c1.789,0,3.157-1.369,3.157-3.158v-4.208h5.675"/>
	<path class="path" fill="none" stroke="#231F20" stroke-miterlimit="10" d="M22.704,70.274V23.407c0-2.735,2.21-4.945,4.946-4.945h7.181"/>
	<path class="path" fill="none" stroke="#231F20" stroke-miterlimit="10" d="M22.704,70.274"/>
	<path class="path" fill="none" stroke="#231F20" stroke-miterlimit="10" d="M92.153,50.556v31.358c0,2.736-2.208,4.946-4.945,4.946H27.649
		c-2.736,0-4.946-2.21-4.946-4.946v-6.117"/>
	<path class="path" fill="none" stroke="#231F20" stroke-miterlimit="10" d="M44.133,21.881c0,0.536-0.357,0.895-0.893,0.895h-5.358
		c-0.536,0-0.893-0.358-0.893-0.895v-8.944c0-0.536,0.357-0.895,0.893-0.895h5.358c0.536,0,0.893,0.358,0.893,0.895V21.881z"/>
	<path class="path" fill="none" stroke="#231F20" stroke-miterlimit="10" d="M72.637,14.282v-1.345c0-0.536,0.366-0.895,0.912-0.895h5.469
		c0.547,0,0.911,0.358,0.911,0.895v4.472v4.473c0,0.536-0.364,0.895-0.911,0.895h-5.469c-0.546,0-0.912-0.358-0.912-0.895V14.282"/>
	<g>
		<path class="path" fill="none" stroke="#231F20" stroke-miterlimit="10" d="M33.962,53.431"/>
		<polyline fill="none" stroke="#231F20" stroke-miterlimit="10" points="33.962,53.431 33.962,50.939 41.129,50.939 41.129,58.106 
			33.962,58.106 33.962,55.148 		"/>
		<rect x="53.846" y="50.939" fill="none" stroke="#231F20" stroke-miterlimit="10" width="7.166" height="7.167"/>
		<rect x="73.729" y="50.939" fill="none" stroke="#231F20" stroke-miterlimit="10" width="7.166" height="7.167"/>
	</g>
	<g>
		<rect x="33.962" y="68.709" fill="none" stroke="#231F20" stroke-miterlimit="10" width="7.167" height="7.165"/>
		<rect x="53.846" y="68.709" fill="none" stroke="#231F20" stroke-miterlimit="10" width="7.166" height="7.165"/>
		<path class="path" fill="none" stroke="#231F20" stroke-miterlimit="10" d="M76.283,68.709"/>
		<polyline fill="none" stroke="#231F20" stroke-miterlimit="10" points="76.672,68.709 80.895,68.709 80.895,75.874 73.729,75.874 
			73.729,68.709 75.234,68.709 		"/>
	</g>
</g>
</svg>
