<?xml version="1.0" encoding="utf-8"?>
<!-- Generator: Adobe Illustrator 16.0.0, SVG Export Plug-In . SVG Version: 6.00 Build 0)  -->
<!DOCTYPE svg PUBLIC "-//W3C//DTD SVG 1.1//EN" "http://www.w3.org/Graphics/SVG/1.1/DTD/svg11.dtd">
<svg version="1.1" id="Layer_1" xmlns="http://www.w3.org/2000/svg" xmlns:xlink="http://www.w3.org/1999/xlink" x="0px" y="0px"
	 width="116px" height="96px" viewBox="0 0 116 96" enable-background="new 0 0 116 96" xml:space="preserve">
<g>
	<path class="path" fill="none" stroke="#FFFFFF" stroke-miterlimit="10" d="M85.758,74.648c-0.459,0.664-0.939,1.312-1.443,1.941"/>
	<path class="path" fill="none" stroke="#FFFFFF" stroke-miterlimit="10" d="M87.291,72.213c-0.479,0.835-0.989,1.647-1.533,2.436"/>
	<path class="path" fill="none" stroke="#FFFFFF" stroke-miterlimit="10" d="M82.464,78.722c-6.252,6.63-15.116,10.768-24.948,10.768
		c-18.934,0-34.284-15.35-34.284-34.284s15.35-34.284,34.284-34.284c18.936,0,34.285,15.35,34.285,34.284
		c0,5.095-1.112,9.931-3.105,14.277"/>
	<path class="path" fill="none" stroke="#FFFFFF" stroke-miterlimit="10" d="M57.516,27.86"/>
	<path class="path" fill="none" stroke="#FFFFFF" stroke-miterlimit="10" d="M57.516,27.86c15.103,0,27.346,12.243,27.346,27.345
		c0,15.103-12.243,27.345-27.346,27.345c-15.101,0-27.345-12.242-27.345-27.345"/>
	<path class="path" fill="none" stroke="#FFFFFF" stroke-miterlimit="10" d="M57.516,49.894"/>
	<path class="path" fill="none" stroke="#FFFFFF" stroke-miterlimit="10" d="M58.586,50.001c2.421,0.495,4.242,2.638,4.242,5.204
		c0,2.934-2.379,5.312-5.312,5.312c-2.933,0-5.312-2.378-5.312-5.312c0-1.655,0.757-3.133,1.943-4.107"/>
	<line class="linePath" fill="none" stroke="#FFFFFF" stroke-miterlimit="10" x1="38.778" y1="36.395" x2="53.767" y2="51.442"/>
	<line class="linePath" fill="none" stroke="#FFFFFF" stroke-miterlimit="10" x1="57.516" y1="10.266" x2="57.516" y2="21.145"/>
	<path class="path" fill="none" stroke="#FFFFFF" stroke-miterlimit="10" d="M68.383,6.902c0,1.857-1.506,3.363-3.362,3.363H50.012
		c-1.857,0-3.363-1.506-3.363-3.363v-1.25c0-1.857,1.506-3.363,3.363-3.363h15.008c1.856,0,3.362,1.506,3.362,3.363V6.902z"/>
	<line class="linePath" fill="none" stroke="#FFFFFF" stroke-miterlimit="10" x1="42.144" y1="93.711" x2="31.479" y2="93.711"/>
	<line class="linePath" fill="none" stroke="#FFFFFF" stroke-miterlimit="10" x1="30.131" y1="93.711" x2="28.728" y2="93.711"/>
	<line class="linePath" fill="none" stroke="#FFFFFF" stroke-miterlimit="10" x1="110.01" y1="47.804" x2="99.344" y2="47.804"/>
	<line class="linePath" fill="none" stroke="#FFFFFF" stroke-miterlimit="10" x1="97.997" y1="47.804" x2="96.593" y2="47.804"/>
	<line class="linePath" fill="none" stroke="#FFFFFF" stroke-miterlimit="10" x1="25.391" y1="16.91" x2="36.056" y2="16.91"/>
	<line class="linePath" fill="none" stroke="#FFFFFF" stroke-miterlimit="10" x1="37.403" y1="16.91" x2="38.808" y2="16.91"/>
	<line class="linePath" fill="none" stroke="#FFFFFF" stroke-miterlimit="10" x1="57.516" y1="63.654" x2="57.516" y2="72.694"/>
</g>
</svg>
