<?xml version="1.0" encoding="utf-8"?>
<!-- Generator: Adobe Illustrator 16.0.0, SVG Export Plug-In . SVG Version: 6.00 Build 0)  -->
<!DOCTYPE svg PUBLIC "-//W3C//DTD SVG 1.1//EN" "http://www.w3.org/Graphics/SVG/1.1/DTD/svg11.dtd">
<svg version="1.1" id="Layer_1" xmlns="http://www.w3.org/2000/svg" xmlns:xlink="http://www.w3.org/1999/xlink" x="0px" y="0px"
	 width="116px" height="96px" viewBox="0 0 116 96" enable-background="new 0 0 116 96" xml:space="preserve">
<g>
	<line class="linePath" fill="none" stroke="#000000" stroke-miterlimit="10" x1="52.936" y1="2.836" x2="42.541" y2="2.836"/>
	<line class="linePath" fill="none" stroke="#000000" stroke-miterlimit="10" x1="41.227" y1="2.836" x2="39.859" y2="2.836"/>
	<line class="linePath" fill="none" stroke="#000000" stroke-miterlimit="10" x1="17.236" y1="78.646" x2="6.84" y2="78.646"/>
	<line class="linePath" fill="none" stroke="#000000" stroke-miterlimit="10" x1="5.527" y1="78.646" x2="4.158" y2="78.646"/>
	<line class="linePath" fill="none" stroke="#000000" stroke-miterlimit="10" x1="95.384" y1="31.69" x2="105.779" y2="31.69"/>
	<line class="linePath" fill="none" stroke="#000000" stroke-miterlimit="10" x1="107.093" y1="31.69" x2="108.461" y2="31.69"/>
	<path class="path" fill="none" stroke="#231F20" stroke-miterlimit="10" d="M31.009,93.021"/>
	<polyline fill="none" stroke="#231F20" stroke-miterlimit="10" points="77.917,93.021 22.284,93.021 22.284,80.457 	"/>
	<path class="path" fill="none" stroke="#231F20" stroke-miterlimit="10" d="M22.284,77.104V50.876L59.652,77.94c0.353,0.184,0.771,0.184,1.123,0
		l37.368-27.064v42.145H81.614"/>
	<line class="linePath" fill="none" stroke="#231F20" stroke-miterlimit="10" x1="88.496" y1="26.66" x2="88.496" y2="29.668"/>
	<path class="path" fill="none" stroke="#231F20" stroke-miterlimit="10" d="M88.496,26.66"/>
	<polyline fill="none" stroke="#231F20" stroke-miterlimit="10" points="31.836,53.121 31.836,14.163 88.496,14.163 88.496,25.19 	
		"/>
	<line class="linePath" fill="none" stroke="#231F20" stroke-miterlimit="10" x1="31.836" y1="57.788" x2="31.836" y2="52.234"/>
	<line class="linePath" fill="none" stroke="#231F20" stroke-miterlimit="10" x1="88.496" y1="33.702" x2="88.496" y2="57.788"/>
	<line class="linePath" fill="none" stroke="#231F20" stroke-miterlimit="10" x1="22.089" y1="50.302" x2="31.836" y2="43.249"/>
	<line class="linePath" fill="none" stroke="#231F20" stroke-miterlimit="10" x1="88.595" y1="43.249" x2="98.343" y2="50.302"/>
	<g>
		<g>
			<path class="path" fill="none" stroke="#000000" stroke-miterlimit="10" d="M69.461,25.772c1.151,0,2.085,0.933,2.085,2.083
				c0,1.152-0.934,2.084-2.085,2.084c-1.15,0-2.084-0.932-2.084-2.084C67.377,26.705,68.311,25.772,69.461,25.772L69.461,25.772
				L69.461,25.772z"/>
			<path class="path" fill="none" stroke="#000000" stroke-miterlimit="10" d="M64.272,41.005l-6.706-6.684l-9.784,9.773"/>
			<path class="path" fill="none" stroke="#000000" stroke-miterlimit="10" d="M72.55,46.179l-5.48-5.455l-5.485,5.455"/>
		</g>
		<path class="path" fill="none" stroke="#000000" stroke-miterlimit="10" d="M48.473,21.947"/>
		<polyline fill="none" stroke="#000000" stroke-miterlimit="10" points="48.473,21.947 79.505,21.947 79.505,50.004 40.828,50.004 
			40.828,21.947 45.158,21.947 		"/>
	</g>
</g>
</svg>
