<?xml version="1.0" encoding="utf-8"?>
<!-- Generator: Adobe Illustrator 16.0.0, SVG Export Plug-In . SVG Version: 6.00 Build 0)  -->
<!DOCTYPE svg PUBLIC "-//W3C//DTD SVG 1.1//EN" "http://www.w3.org/Graphics/SVG/1.1/DTD/svg11.dtd">
<svg version="1.1" id="Layer_1" xmlns="http://www.w3.org/2000/svg" xmlns:xlink="http://www.w3.org/1999/xlink" x="0px" y="0px"
	 width="116px" height="96px" viewBox="0 0 116 96" enable-background="new 0 0 116 96" xml:space="preserve">
<g>
	<line class="linePath" fill="none" stroke="#000000" stroke-miterlimit="10" x1="17.368" y1="7.225" x2="31.024" y2="7.225"/>
	<line class="linePath" fill="none" stroke="#000000" stroke-miterlimit="10" x1="32.75" y1="7.225" x2="34.548" y2="7.225"/>
	<line class="linePath" fill="none" stroke="#000000" stroke-miterlimit="10" x1="91.895" y1="42.511" x2="105.552" y2="42.511"/>
	<line class="linePath" fill="none" stroke="#000000" stroke-miterlimit="10" x1="107.276" y1="42.511" x2="109.075" y2="42.511"/>
	<line class="linePath" fill="none" stroke="#000000" stroke-miterlimit="10" x1="85.303" y1="92.903" x2="71.647" y2="92.903"/>
	<line class="linePath" fill="none" stroke="#000000" stroke-miterlimit="10" x1="69.922" y1="92.903" x2="68.123" y2="92.903"/>
	<path class="path" fill="none" stroke="#231F20" stroke-miterlimit="10" d="M65.29,73.784c1.541,2.423,2.613,5.02,3.104,7.672H56.606"/>
	<path class="path" fill="none" stroke="#231F20" stroke-miterlimit="10" d="M22.494,39.441c0-10.561,7.175-19.154,15.992-19.154
		c8.819,0,15.995,8.593,15.995,19.154c0,6.955-3.085,14.134-7.86,18.288c-0.515,0.443-0.741,1.138-0.59,1.802
		c0.149,0.663,0.651,1.188,1.308,1.368c1.171,0.325,2.315,0.713,3.426,1.159c0.549,0.219,1.091,0.453,1.623,0.701"/>
	<path class="path" fill="none" stroke="#231F20" stroke-miterlimit="10" d="M48.609,81.456H8.578c1.687-9.104,10.213-17.552,21.058-20.558
		c0.653-0.18,1.155-0.705,1.308-1.368c0.149-0.664-0.078-1.358-0.59-1.802c-3.574-3.107-6.202-7.912-7.297-13.05"/>
	<path class="path" fill="none" stroke="#231F20" stroke-miterlimit="10" d="M82.748,33.729c-1.093,5.148-3.723,9.965-7.305,13.082
		c-0.511,0.444-0.737,1.136-0.589,1.799c0.151,0.663,0.653,1.189,1.309,1.37C87.01,52.984,95.536,61.434,97.22,70.538H80.661"/>
	<path class="path" fill="none" stroke="#231F20" stroke-miterlimit="10" d="M81.283,32.265"/>
	<path class="path" fill="none" stroke="#231F20" stroke-miterlimit="10" d="M52.387,21.741c2.292-7.218,8.104-12.375,14.924-12.375
		c8.817,0,15.994,8.593,15.994,19.155"/>
	<polyline fill="none" stroke="#231F20" stroke-miterlimit="10" points="49.634,76.351 45.318,70.531 78.053,70.531 	"/>
	<polyline fill="none" stroke="#231F20" stroke-miterlimit="10" points="71.892,60.217 76.207,66.036 43.473,66.036 	"/>
</g>
</svg>
