<?xml version="1.0" encoding="utf-8"?>
<!-- Generator: Adobe Illustrator 16.0.0, SVG Export Plug-In . SVG Version: 6.00 Build 0)  -->
<!DOCTYPE svg PUBLIC "-//W3C//DTD SVG 1.1//EN" "http://www.w3.org/Graphics/SVG/1.1/DTD/svg11.dtd">
<svg version="1.1" id="Layer_1" xmlns="http://www.w3.org/2000/svg" xmlns:xlink="http://www.w3.org/1999/xlink" x="0px" y="0px"
	 width="116px" height="96px" viewBox="0 0 116 96" enable-background="new 0 0 116 96" xml:space="preserve">
<g>
	
	<path fill="none" stroke="#000000" stroke-miterlimit="10" d="M291.073,92.506c-0.464,0.674-0.951,1.33-1.461,1.967"/>
	<path fill="none" stroke="#000000" stroke-miterlimit="10" d="M292.626,90.039c-0.483,0.846-1.002,1.668-1.553,2.467"/>
	<path fill="none" stroke="#000000" stroke-miterlimit="10" d="M287.737,96.633c-6.332,6.715-15.312,10.906-25.271,10.906
		c-19.178,0-34.725-15.547-34.725-34.727s15.547-34.726,34.725-34.726c19.179,0,34.727,15.546,34.727,34.726
		c0,5.16-1.126,10.059-3.146,14.461"/>
	<path fill="none" stroke="#000000" stroke-miterlimit="10" d="M262.467,45.115"/>
	<path fill="none" stroke="#000000" stroke-miterlimit="10" d="M262.467,45.115c15.297,0,27.698,12.401,27.698,27.698
		s-12.401,27.697-27.698,27.697c-15.295,0-27.697-12.4-27.697-27.697"/>
	<path fill="none" stroke="#000000" stroke-miterlimit="10" d="M262.467,67.433"/>
	<path fill="none" stroke="#000000" stroke-miterlimit="10" d="M263.552,67.541c2.451,0.502,4.296,2.672,4.296,5.271
		c0,2.973-2.409,5.381-5.381,5.381c-2.971,0-5.379-2.408-5.379-5.381c0-1.676,0.766-3.174,1.968-4.16"/>
	<line fill="none" stroke="#000000" stroke-miterlimit="10" x1="243.488" y1="53.76" x2="258.67" y2="69.002"/>
	<line fill="none" stroke="#000000" stroke-miterlimit="10" x1="262.468" y1="27.293" x2="262.468" y2="38.312"/>
	<path fill="none" stroke="#000000" stroke-miterlimit="10" d="M273.476,23.887c0,1.881-1.525,3.406-3.407,3.406h-15.201
		c-1.882,0-3.406-1.525-3.406-3.406v-1.267c0-1.881,1.524-3.406,3.406-3.406h15.201c1.882,0,3.407,1.525,3.407,3.406V23.887z"/>
	<linearGradient id="SVGID_11_" gradientUnits="userSpaceOnUse" x1="231.2188" y1="114.252" x2="242.0215" y2="114.252">
		<stop  offset="0" style="stop-color:#BD9234"/>
		<stop  offset="1" style="stop-color:#000000"/>
	</linearGradient>
	<line fill="none" stroke="#000000" stroke-miterlimit="10" x1="242.021" y1="114.252" x2="231.219" y2="114.252"/>
	<line fill="none" stroke="#000000" stroke-miterlimit="10" x1="229.854" y1="114.252" x2="228.432" y2="114.252"/>
	<line fill="none" stroke="#000000" stroke-miterlimit="10" x1="318.685" y1="65.925" x2="307.883" y2="65.925"/>
	<line fill="none" stroke="#000000" stroke-miterlimit="10" x1="306.518" y1="65.925" x2="305.095" y2="65.925"/>
	<line fill="none" stroke="#000000" stroke-miterlimit="10" x1="229.928" y1="34.023" x2="240.73" y2="34.023"/>
	<line fill="none" stroke="#000000" stroke-miterlimit="10" x1="242.096" y1="34.023" x2="243.518" y2="34.023"/>
	<line fill="none" stroke="#000000" stroke-miterlimit="10" x1="262.468" y1="81.369" x2="262.468" y2="90.527"/>
</g>
<g>
	<path fill="none" stroke="#000000" stroke-miterlimit="10" d="M63.853,65.163c-4.643,2.022-9.18,3.825-13.521,5.391"/>
	<path fill="none" stroke="#000000" stroke-miterlimit="10" d="M85.622,54.326c-4.148,2.364-8.528,4.661-13.233,6.925"/>
	<g>
		<path fill="none" stroke="#000000" stroke-miterlimit="10" d="M44.979,72.413c-4.584,1.491-9.26,2.789-13.146,3.656
			c7.021,9.08,18.017,14.929,30.383,14.929c21.198,0,38.384-17.185,38.384-38.383c0-2.523-0.247-4.99-0.712-7.377
			c-2.886,2.098-6.097,4.224-9.706,6.412"/>
		<path fill="none" stroke="#000000" stroke-miterlimit="10" d="M36.524,24.097c-7.794,7.025-12.693,17.199-12.693,28.519
			c0,2.005,0.155,3.972,0.451,5.894"/>
		<path fill="none" stroke="#000000" stroke-miterlimit="10" d="M91.454,27.75c-7.041-8.271-17.526-13.52-29.239-13.52
			c-7.731,0-14.929,2.286-20.954,6.219"/>
	</g>
	<path fill="none" stroke="#000000" stroke-miterlimit="10" d="M20.677,61.278"/>
	<path fill="none" stroke="#000000" stroke-miterlimit="10" d="M20.677,77.715c3.119-0.136,6.89-0.695,11.155-1.646
		c-3.877-5.014-6.542-11.014-7.55-17.561"/>
	<path fill="none" stroke="#000000" stroke-miterlimit="10" d="M20.677,61.278c-7.062,5.72-10.684,10.668-9.32,13.663
		c0.844,1.853,3.503,2.757,7.528,2.806"/>
	<path fill="none" stroke="#000000" stroke-miterlimit="10" d="M93.659,27.257c-0.721,0.153-1.456,0.317-2.205,0.493"/>
	<path fill="none" stroke="#000000" stroke-miterlimit="10" d="M91.454,27.75c4.184,4.916,7.15,10.901,8.433,17.487
		c9.562-6.95,14.78-13.121,13.185-16.621c-1.926-4.229-12.72-2.588-16.378-1.947"/>
	<g>
		<path fill="none" stroke="#000000" stroke-miterlimit="10" d="M76.898,67.676l-7.497-1.39l-3.959,6.518l-1.306-7.761l-7.414-2.13
			l6.736-3.428l-0.588-7.792l5.418,5.631l7.044-2.739l-3.352,6.946L76.898,67.676z"/>
	</g>
	<g>
		<path fill="none" stroke="#000000" stroke-miterlimit="10" d="M93.061,55.701l-4.477-0.687l-2.23,3.94l-0.917-4.581l-4.441-1.128
			l3.937-2.159l-0.492-4.615l3.319,3.243l4.132-1.755l-1.862,4.184L93.061,55.701z"/>
	</g>
	<g>
		<path fill="none" stroke="#000000" stroke-miterlimit="10" d="M52.79,74.29l-4.426-0.956l-2.465,3.799l-0.639-4.63l-4.364-1.395
			l4.06-1.916l-0.212-4.636l3.117,3.438l4.231-1.502l-2.112,4.063L52.79,74.29z"/>
	</g>
	<line fill="none" stroke="#000000" stroke-miterlimit="10" x1="99.393" y1="77.628" x2="111.417" y2="77.628"/>
	<line fill="none" stroke="#000000" stroke-miterlimit="10" x1="112.936" y1="77.628" x2="114.521" y2="77.628"/>
	<line fill="none" stroke="#000000" stroke-miterlimit="10" x1="16.037" y1="46.944" x2="4.012" y2="46.944"/>
	<line fill="none" stroke="#000000" stroke-miterlimit="10" x1="2.493" y1="46.944" x2="0.91" y2="46.944"/>
	<line fill="none" stroke="#000000" stroke-miterlimit="10" x1="91.454" y1="1.122" x2="79.428" y2="1.122"/>
	<line fill="none" stroke="#000000" stroke-miterlimit="10" x1="77.908" y1="1.122" x2="76.326" y2="1.122"/>
	<path fill="none" stroke="#000000" stroke-miterlimit="10" d="M36.377,64.559c-1.682-3.633-2.621-7.679-2.621-11.943
		c0-15.717,12.741-28.458,28.458-28.458c11.696,0,21.746,7.058,26.12,17.145"/>
</g>
</svg>
